:FULLY-SPECIFIED
:FORCE-ALL-JOINTS-BE-3DOF
:DEGREES
2854
root -6.08747 13.277 -28.8229 160.693 -66.7258 -158.926
lfemur -65.6792 44.9655 -5.55068
ltibia 77.2072 -0 0
lfoot -4.85939 -6.21547 9.86123e-05
ltoes -29.4718 0 0
rfemur -31.2357 -19.1977 22.4853
rtibia 88.8192 -0 0
rfoot -41.0808 -28.8942 2.56858e-05
rtoes -13.856 0 0
lowerback 15.6721 5.61163 1.04152
upperback -4.51609 7.98583 1.66391
thorax -13.9675 3.69065 -0.913605
lowerneck -2.54249 9.62954 2.25071
upperneck 9.15984 12.5365 2.03574
head 3.40921 6.33341 0.75007
lclavicle -1.0625e-13 -1.94809e-14 0
lhumerus 5.56942 12.2578 84.2103
lradius 93.4107 -0 0
lwrist -19.1942 0 0
lhand -39.4639 28.1157 -5.17123e-05
lfingers 7.12502 -0 0
lthumb -12.451 57.7252 -4.89377e-05
rclavicle -1.0625e-13 -1.94809e-14 0
rhumerus -59.1675 51.063 -111.627
rradius 113.584 -0 0
rwrist -83.6779 0 0
rhand 8.0393 -25.9457 9.46662e-05
rfingers 7.12502 -0 0
rthumb 33.2644 -52.8901 0.000114521
2855
root -6.08777 13.2765 -28.8228 160.675 -66.7298 -158.899
lfemur -65.7058 44.9649 -5.55193
ltibia 77.2249 -0 0
lfoot -4.87407 -6.22652 4.63952e-05
ltoes -29.5223 0 0
rfemur -31.245 -19.1957 22.497
rtibia 88.8305 -0 0
rfoot -41.0837 -28.9089 1.20847e-05
rtoes -13.8634 0 0
lowerback 15.6763 5.60871 1.05186
upperback -4.51807 7.98425 1.66418
thorax -13.9709 3.68888 -0.919061
lowerneck -2.54426 9.62965 2.25236
upperneck 9.16209 12.5362 2.03798
head 3.41028 6.33341 0.750707
lclavicle -1.0625e-13 -1.94809e-14 0
lhumerus 5.58391 12.2553 84.2038
lradius 93.4039 -0 0
lwrist -19.1981 0 0
lhand -39.4588 28.0991 -2.43296e-05
lfingers 7.12502 -0 0
lthumb -12.4461 57.7088 -2.30242e-05
rclavicle -1.0625e-13 -1.94809e-14 0
rhumerus -59.1712 51.0687 -111.636
rradius 113.579 -0 0
rwrist -83.6648 0 0
rhand 8.05387 -25.935 4.45386e-05
rfingers 7.12502 -0 0
rthumb 33.2783 -52.8765 5.388e-05
2856
root -6.08795 13.2761 -28.8227 160.664 -66.7322 -158.882
lfemur -65.7224 44.9645 -5.55272
ltibia 77.236 -0 0
lfoot -4.88328 -6.23347 1.21441e-05
ltoes -29.5541 0 0
rfemur -31.2508 -19.1945 22.5043
rtibia 88.8375 -0 0
rfoot -41.0855 -28.9181 3.16321e-06
rtoes -13.8681 0 0
lowerback 15.6789 5.60688 1.05836
upperback -4.51932 7.98325 1.66434
thorax -13.9731 3.68777 -0.922489
lowerneck -2.54537 9.62972 2.25339
upperneck 9.1635 12.5361 2.03939
head 0 0 0
lclavicle -1.0625e-13 -1.94809e-14 0
lhumerus 5.59302 12.2537 84.1998
lradius 93.3996 -0 0
lwrist -19.2006 0 0
lhand -39.4556 28.0886 -6.36837e-06
lfingers 7.12502 -0 0
lthumb -12.443 57.6986 -6.02667e-06
rclavicle -1.0625e-13 -1.94809e-14 0
rhumerus -59.1735 51.0723 -111.641
rradius 113.576 -0 0
rwrist -83.6566 0 0
rhand 8.06302 -25.9283 1.16581e-05
rfingers 7.12502 -0 0
rthumb 33.287 -52.868 1.41033e-05
2857
root -6.09392 13.2596 -28.8131 160.66 -66.7331 -158.876
lfemur -65.7282 44.9644 -5.55299
ltibia 77.2399 0 0
lfoot -4.88648 -6.23588 0
ltoes -29.5651 0 0
rfemur -31.2528 -19.1941 22.5069
rtibia 88.84 0 0
rfoot -41.0861 -28.9213 0
rtoes -13.8697 0 0
lowerback 15.6798 5.60624 1.06061
upperback -4.51975 7.98291 1.6644
thorax -13.9738 3.68739 -0.923678
lowerneck -2.54576 9.62974 2.25375
upperneck 9.16399 12.536 2.03988
head 3.41119 6.33341 0.751245
lclavicle -2.9122e-14 1.19271e-15 0
lhumerus 5.59618 12.2531 84.1984
lradius 93.3981 0 0
lwrist -19.2015 0 0
lhand -39.4545 28.085 0
lfingers 7.12502 0 0
lthumb -12.4419 57.695 0
rclavicle -2.9122e-14 1.19271e-15 0
rhumerus -59.1743 51.0736 -111.643
rradius 113.575 0 0
rwrist -83.6537 0 0
rhand 8.0662 -25.926 0
rfingers 7.12502 0 0
rthumb 33.29 -52.865 0
2858
root -6.09471 13.2573 -28.8116 160.665 -66.7365 -158.872
lfemur -65.7524 44.9628 -5.5674
ltibia 77.2539 -0 0
lfoot -4.91764 -6.21851 -0.000162934
ltoes -29.6335 0 0
rfemur -31.273 -19.1861 22.5077
rtibia 88.8557 -0 0
rfoot -41.0788 -28.9419 -4.50931e-05
rtoes -13.8626 0 0
lowerback 15.685 5.60609 1.06953
upperback -4.52265 7.98477 1.664
thorax -13.979 3.68723 -0.930184
lowerneck -2.54788 9.62806 2.2519
upperneck 9.16429 12.5336 2.04254
head 3.41136 6.33226 0.752401
lclavicle -2.9122e-14 1.19271e-15 0
lhumerus 5.59068 12.2629 84.201
lradius 93.3918 -0 0
lwrist -19.2014 0 0
lhand -39.4504 28.0805 -5.53349e-06
lfingers 7.12502 -0 0
lthumb -12.438 57.6907 -5.07204e-06
rclavicle -2.9122e-14 1.19271e-15 0
rhumerus -59.1759 51.0783 -111.647
rradius 113.57 -0 0
rwrist -83.6457 0 0
rhand 8.06496 -25.9242 -6.60877e-07
rfingers 7.12502 -0 0
rthumb 33.2888 -52.8635 -5.49482e-07
2859
root -6.09541 13.2549 -28.8099 160.672 -66.7408 -158.868
lfemur -65.7835 44.9606 -5.58595
ltibia 77.272 -0 0
lfoot -4.95776 -6.19614 -0.000358774
ltoes -29.7216 0 0
rfemur -31.2989 -19.1758 22.5087
rtibia 88.876 -0 0
rfoot -41.0695 -28.9684 -9.92933e-05
rtoes -13.8534 0 0
lowerback 15.6916 5.6059 1.08101
upperback -4.52639 7.98716 1.6635
thorax -13.9857 3.68703 -0.938559
lowerneck -2.5506 9.6259 2.24952
upperneck 9.16467 12.5305 2.04597
head 3.41158 6.33079 0.753888
lclavicle -2.9122e-14 1.19271e-15 0
lhumerus 5.5836 12.2756 84.2043
lradius 93.3836 -0 0
lwrist -19.2014 0 0
lhand -39.4452 28.0746 -1.21845e-05
lfingers 7.12502 -0 0
lthumb -12.433 57.6851 -1.11684e-05
rclavicle -2.9122e-14 1.19271e-15 0
rhumerus -59.1779 51.0843 -111.651
rradius 113.563 -0 0
rwrist -83.6355 0 0
rhand 8.06337 -25.9219 -1.45523e-06
rfingers 7.12502 -0 0
rthumb 33.2873 -52.8615 -1.20994e-06
2860
root -6.09602 13.2526 -28.8081 160.679 -66.746 -158.862
lfemur -65.8207 44.9581 -5.60813
ltibia 77.2936 -0 0
lfoot -5.00576 -6.16938 -0.000572505
ltoes -29.827 0 0
rfemur -31.33 -19.1635 22.51
rtibia 88.9002 -0 0
rfoot -41.0582 -29.0001 -0.000158445
rtoes -13.8424 0 0
lowerback 15.6996 5.60568 1.09474
upperback -4.53087 7.99002 1.66289
thorax -13.9937 3.68678 -0.948579
lowerneck -2.55386 9.62332 2.24667
upperneck 9.16512 12.5267 2.05008
head 3.41184 6.32902 0.755668
lclavicle -2.9122e-14 1.19271e-15 0
lhumerus 5.57513 12.2908 84.2083
lradius 93.3739 -0 0
lwrist -19.2013 0 0
lhand -39.439 28.0676 -1.94432e-05
lfingers 7.12502 -0 0
lthumb -12.4269 57.6785 -1.78217e-05
rclavicle -2.9122e-14 1.19271e-15 0
rhumerus -59.1803 51.0915 -111.657
rradius 113.555 -0 0
rwrist -83.6233 0 0
rhand 8.06147 -25.9192 -2.32214e-06
rfingers 7.12502 -0 0
rthumb 33.2855 -52.8591 -1.93073e-06
2861
root -6.09655 13.2503 -28.8061 160.688 -66.7519 -158.856
lfemur -65.8631 44.9552 -5.63346
ltibia 77.3183 -0 0
lfoot -5.06057 -6.13883 -0.00078913
ltoes -29.9473 0 0
rfemur -31.3654 -19.1495 22.5114
rtibia 88.9278 -0 0
rfoot -41.0455 -29.0363 -0.000218397
rtoes -13.8298 0 0
lowerback 15.7086 5.60541 1.11042
upperback -4.53598 7.99329 1.66219
thorax -14.0029 3.6865 -0.96002
lowerneck -2.55757 9.62036 2.24342
upperneck 9.16564 12.5225 2.05476
head 3.41214 6.32701 0.7577
lclavicle -2.9122e-14 1.19271e-15 0
lhumerus 5.56546 12.3081 84.2129
lradius 93.3628 -0 0
lwrist -19.2012 0 0
lhand -39.4319 28.0597 -2.68e-05
lfingers 7.12502 -0 0
lthumb -12.4201 57.6709 -2.45651e-05
rclavicle -2.9122e-14 1.19271e-15 0
rhumerus -59.183 51.0997 -111.663
rradius 113.547 -0 0
rwrist -83.6093 0 0
rhand 8.05929 -25.9161 -3.20079e-06
rfingers 7.12502 -0 0
rthumb 33.2834 -52.8563 -2.66127e-06
2862
root -6.09699 13.2481 -28.804 160.698 -66.7584 -158.849
lfemur -65.91 44.9519 -5.66144
ltibia 77.3456 -0 0
lfoot -5.12111 -6.10508 -0.000994438
ltoes -30.0803 0 0
rfemur -31.4045 -19.1339 22.5129
rtibia 88.9584 -0 0
rfoot -41.0313 -29.0763 -0.000275217
rtoes -13.816 0 0
lowerback 15.7187 5.60512 1.12774
upperback -4.54162 7.99689 1.66142
thorax -14.013 3.68619 -0.972658
lowerneck -2.56168 9.6171 2.23982
upperneck 9.16621 12.5178 2.05993
head 3.41248 6.32478 0.759945
lclavicle -2.9122e-14 1.19271e-15 0
lhumerus 5.55479 12.3272 84.2179
lradius 93.3505 -0 0
lwrist -19.2011 0 0
lhand -39.424 28.0508 -3.37725e-05
lfingers 7.12502 -0 0
lthumb -12.4125 57.6625 -3.09562e-05
rclavicle -2.9122e-14 1.19271e-15 0
rhumerus -59.1861 51.1088 -111.67
rradius 113.537 -0 0
rwrist -83.5938 0 0
rhand 8.05689 -25.9126 -4.03353e-06
rfingers 7.12502 -0 0
rthumb 33.2811 -52.8533 -3.35365e-06
2863
root -6.09736 13.2459 -28.8018 160.709 -66.7655 -158.842
lfemur -65.9605 44.9484 -5.69155
ltibia 77.375 -0 0
lfoot -5.1863 -6.06873 -0.00117566
ltoes -30.2234 0 0
rfemur -31.4467 -19.1172 22.5146
rtibia 88.9913 -0 0
rfoot -41.0161 -29.1194 -0.000325371
rtoes -13.801 0 0
lowerback 15.7295 5.6048 1.14639
upperback -4.5477 8.00078 1.66059
thorax -14.0239 3.68585 -0.986267
lowerneck -2.56611 9.61359 2.23595
upperneck 9.16683 12.5127 2.06551
head 3.41283 6.32239 0.762362
lclavicle -2.9122e-14 1.19271e-15 0
lhumerus 5.54329 12.3478 84.2234
lradius 93.3373 -0 0
lwrist -19.201 0 0
lhand -39.4155 28.0413 -3.9927e-05
lfingers 7.12502 -0 0
lthumb -12.4043 57.6535 -3.65974e-05
rclavicle -2.9122e-14 1.19271e-15 0
rhumerus -59.1894 51.1186 -111.678
rradius 113.526 -0 0
rwrist -83.5772 0 0
rhand 8.0543 -25.9089 -4.76857e-06
rfingers 7.12502 -0 0
rthumb 33.2787 -52.8501 -3.9648e-06
